<svg id="Logo" xmlns="http://www.w3.org/2000/svg" viewBox="0 0 126.32 39.1"><defs><style>.cls-1,.cls-11,.cls-5,.cls-8{fill:#fff;}.cls-1{stroke:#222240;}.cls-1,.cls-2{stroke-miterlimit:10;}.cls-2{fill:none;stroke:#d91f26;stroke-width:0.5px;}.cls-3{fill:#222240;}.cls-4{fill:#d91f26;}.cls-5{font-size:29.56px;font-family:MyriadPro-Bold, Myriad Pro;font-weight:700;}.cls-6{letter-spacing:0.02em;}.cls-7{letter-spacing:0.02em;}.cls-8{font-size:12.13px;font-family:Quicksand-Regular, Quicksand;}.cls-9{letter-spacing:0.5em;}.cls-10{letter-spacing:0.5em;}.cls-11{font-size:3.69px;font-family:MyriadPro-Semibold, Myriad Pro;font-weight:600;}</style></defs><title>logo</title><circle class="cls-1" cx="106.91" cy="19.55" r="18.91"/><circle class="cls-2" cx="106.91" cy="19.55" r="16.36"/><path class="cls-3" d="M444.22,67.38a5.68,5.68,0,0,1-2.78,4.79h0l-.18.11-.06,0-11.28,7a2.61,2.61,0,0,0,.24-1.11,2.7,2.7,0,0,0-2.6-2.7l5-3.09,5.62-3.48a6.76,6.76,0,0,0,1-.61,1.06,1.06,0,0,0,.2-1.63c-.67-.66-1.45-.06-2.08.31l-1.95,1.12-.48.27-1.4.81-5.18,3-.41.24h0a2.17,2.17,0,0,1-.92.19,2.26,2.26,0,0,1-2.26-2.26,2.24,2.24,0,0,1,1-1.86l.29-.17h0l5.28-3,1.36-.79c1-.59,2-1.21,3.08-1.78a1.23,1.23,0,0,0,.77-.94,1,1,0,0,0-.65-1,1.56,1.56,0,0,0-1.24.3L432.9,62l-1.41.82-1.27.73-1.46.85a3,3,0,0,1-1.53.57,2.23,2.23,0,0,1-1.61-.67,2.3,2.3,0,0,1-.67-1.62,2.42,2.42,0,0,1,1.4-2.12l2.88-1.66,2.93-1.69,1-.61a5.58,5.58,0,0,1,2.24-.47,5.68,5.68,0,0,1,5,3.14,4,4,0,0,1,.23.57,5.22,5.22,0,0,1,.27,2.52s.82.45.9.51a5.6,5.6,0,0,1,2.06,2.71,5.52,5.52,0,0,1,.31,1.82" transform="translate(-326.27 -48.51)"/><path class="cls-4" d="M429.29,78.19a1.83,1.83,0,1,1-1.83-1.83,1.83,1.83,0,0,1,1.83,1.83" transform="translate(-326.27 -48.51)"/><text class="cls-5" transform="translate(0 24.74)"><tspan class="cls-6">m</tspan><tspan class="cls-7" x="25.98" y="0">a</tspan><tspan class="cls-6" x="42.13" y="0">a</tspan><tspan class="cls-7" x="58.29" y="0">z</tspan><tspan x="72.69" y="0">i</tspan></text><text class="cls-8" transform="translate(0.99 36.61)"><tspan class="cls-9">BA</tspan><tspan class="cls-10" x="27.14" y="0">C</tspan><tspan class="cls-9" x="42.56" y="0">HA</tspan><tspan x="71.09" y="0">T</tspan></text><text class="cls-11" transform="translate(81.42 5.16)">TM</text></svg>